<svg xmlns="http://www.w3.org/2000/svg" viewBox="0 0 200 160">
  <rect width="200" height="160" fill="#eff6ff"/>
  <rect x="74" y="52" width="52" height="62" rx="10" fill="#1e3a8a"/>
  <rect x="74" y="52" width="52" height="18" rx="9" fill="#1e40af"/>
  <rect x="94" y="20" width="12" height="36" fill="#64748b"/>
  <rect x="88" y="12" width="24" height="12" rx="4" fill="#475569"/>
  <path d="M70 122 q10 -8 20 0 q10 8 20 0 q10 -8 20 0" fill="none" stroke="#60a5fa" stroke-width="5" stroke-linecap="round"/>
  <path d="M70 136 q10 -8 20 0 q10 8 20 0 q10 -8 20 0" fill="none" stroke="#93c5fd" stroke-width="5" stroke-linecap="round"/>
  <circle cx="100" cy="88" r="12" fill="#3b82f6"/>
  <path d="M100 80 a8 8 0 0 1 8 8" fill="none" stroke="#bfdbfe" stroke-width="3" stroke-linecap="round"/>
</svg>
