<svg xmlns="http://www.w3.org/2000/svg" viewBox="0 0 200 160"><defs>
<linearGradient id="metal" x1="0" y1="0" x2="1" y2="0"><stop offset="0" stop-color="#e2e8f0"/><stop offset=".45" stop-color="#f8fafc"/><stop offset="1" stop-color="#94a3b8"/></linearGradient>
<linearGradient id="metalv" x1="0" y1="0" x2="0" y2="1"><stop offset="0" stop-color="#f1f5f9"/><stop offset="1" stop-color="#94a3b8"/></linearGradient>
<linearGradient id="chrome" x1="0" y1="0" x2="1" y2="0"><stop offset="0" stop-color="#cbd5e1"/><stop offset=".5" stop-color="#f8fafc"/><stop offset="1" stop-color="#64748b"/></linearGradient>
<linearGradient id="copper" x1="0" y1="0" x2="0" y2="1"><stop offset="0" stop-color="#fbbf24"/><stop offset="1" stop-color="#b45309"/></linearGradient>
<linearGradient id="brass" x1="0" y1="0" x2="0" y2="1"><stop offset="0" stop-color="#fde68a"/><stop offset="1" stop-color="#a16207"/></linearGradient>
<linearGradient id="white" x1="0" y1="0" x2="1" y2="0"><stop offset="0" stop-color="#ffffff"/><stop offset="1" stop-color="#d6d3d1"/></linearGradient>
<linearGradient id="dark" x1="0" y1="0" x2="0" y2="1"><stop offset="0" stop-color="#64748b"/><stop offset="1" stop-color="#1e293b"/></linearGradient>
<linearGradient id="blue" x1="0" y1="0" x2="0" y2="1"><stop offset="0" stop-color="#93c5fd"/><stop offset="1" stop-color="#1d4ed8"/></linearGradient>
<linearGradient id="red" x1="0" y1="0" x2="0" y2="1"><stop offset="0" stop-color="#fca5a5"/><stop offset="1" stop-color="#b91c1c"/></linearGradient>
<linearGradient id="amber" x1="0" y1="0" x2="0" y2="1"><stop offset="0" stop-color="#fcd34d"/><stop offset="1" stop-color="#b45309"/></linearGradient>
<linearGradient id="yellow" x1="0" y1="0" x2="0" y2="1"><stop offset="0" stop-color="#fde047"/><stop offset="1" stop-color="#ca8a04"/></linearGradient>
</defs><rect width="200" height="160" fill="#f8fafc"/><ellipse cx="100" cy="146" rx="52" ry="7" fill="#0f172a" opacity=".08"/>
<rect x="46" y="24" width="108" height="112" rx="4" fill="#f1f5f9" stroke="#e2e8f0"/>
<line x1="46" y1="60" x2="64" y2="60" stroke="#e2e8f0"/><line x1="136" y1="60" x2="154" y2="60" stroke="#e2e8f0"/>
<line x1="46" y1="100" x2="64" y2="100" stroke="#e2e8f0"/><line x1="136" y1="100" x2="154" y2="100" stroke="#e2e8f0"/>
<rect x="64" y="44" width="72" height="72" rx="4" fill="#e2e8f0" stroke="#94a3b8"/>
<rect x="70" y="50" width="60" height="60" fill="#334155"/>
<polygon points="70,50 124,44 124,112 70,110" fill="url(#white)" stroke="#d6d3d1"/>
<circle cx="116" cy="78" r="4" fill="url(#chrome)" stroke="#64748b"/>
<circle cx="68" cy="48" r="2" fill="#94a3b8"/><circle cx="132" cy="48" r="2" fill="#94a3b8"/>
<circle cx="68" cy="112" r="2" fill="#94a3b8"/><circle cx="132" cy="112" r="2" fill="#94a3b8"/>
</svg>
