<svg xmlns="http://www.w3.org/2000/svg" viewBox="0 0 200 160"><defs>
<linearGradient id="metal" x1="0" y1="0" x2="1" y2="0"><stop offset="0" stop-color="#e2e8f0"/><stop offset=".45" stop-color="#f8fafc"/><stop offset="1" stop-color="#94a3b8"/></linearGradient>
<linearGradient id="metalv" x1="0" y1="0" x2="0" y2="1"><stop offset="0" stop-color="#f1f5f9"/><stop offset="1" stop-color="#94a3b8"/></linearGradient>
<linearGradient id="chrome" x1="0" y1="0" x2="1" y2="0"><stop offset="0" stop-color="#cbd5e1"/><stop offset=".5" stop-color="#f8fafc"/><stop offset="1" stop-color="#64748b"/></linearGradient>
<linearGradient id="copper" x1="0" y1="0" x2="0" y2="1"><stop offset="0" stop-color="#fbbf24"/><stop offset="1" stop-color="#b45309"/></linearGradient>
<linearGradient id="brass" x1="0" y1="0" x2="0" y2="1"><stop offset="0" stop-color="#fde68a"/><stop offset="1" stop-color="#a16207"/></linearGradient>
<linearGradient id="white" x1="0" y1="0" x2="1" y2="0"><stop offset="0" stop-color="#ffffff"/><stop offset="1" stop-color="#d6d3d1"/></linearGradient>
<linearGradient id="dark" x1="0" y1="0" x2="0" y2="1"><stop offset="0" stop-color="#64748b"/><stop offset="1" stop-color="#1e293b"/></linearGradient>
<linearGradient id="blue" x1="0" y1="0" x2="0" y2="1"><stop offset="0" stop-color="#93c5fd"/><stop offset="1" stop-color="#1d4ed8"/></linearGradient>
<linearGradient id="red" x1="0" y1="0" x2="0" y2="1"><stop offset="0" stop-color="#fca5a5"/><stop offset="1" stop-color="#b91c1c"/></linearGradient>
<linearGradient id="amber" x1="0" y1="0" x2="0" y2="1"><stop offset="0" stop-color="#fcd34d"/><stop offset="1" stop-color="#b45309"/></linearGradient>
<linearGradient id="yellow" x1="0" y1="0" x2="0" y2="1"><stop offset="0" stop-color="#fde047"/><stop offset="1" stop-color="#ca8a04"/></linearGradient>
</defs><rect width="200" height="160" fill="#f8fafc"/><ellipse cx="100" cy="146" rx="52" ry="7" fill="#0f172a" opacity=".08"/>
<rect x="52" y="88" width="5" height="12" rx="2" fill="url(#chrome)" stroke="#64748b"/>
<rect x="143" y="88" width="5" height="12" rx="2" fill="url(#chrome)" stroke="#64748b"/>
<rect x="97" y="86" width="6" height="14" rx="2" fill="url(#chrome)" stroke="#64748b"/>
<rect x="40" y="98" width="120" height="12" rx="2" fill="url(#brass)" stroke="#92400e"/>
<rect x="44" y="92" width="8" height="22" rx="2" fill="url(#metalv)" stroke="#94a3b8"/>
<rect x="148" y="92" width="8" height="22" rx="2" fill="url(#metalv)" stroke="#94a3b8"/>
<path d="M62 98 v-8 q0 -18 16 -18 t16 18 v8 z" fill="url(#brass)" stroke="#92400e"/>
<path d="M106 98 v-8 q0 -18 16 -18 t16 18 v8 z" fill="url(#brass)" stroke="#92400e"/>
<rect x="70" y="66" width="16" height="8" rx="3" fill="url(#brass)" stroke="#92400e"/>
<rect x="114" y="66" width="16" height="8" rx="3" fill="url(#brass)" stroke="#92400e"/>
<line x1="46" y1="102" x2="154" y2="102" stroke="#fde68a" stroke-width="2" opacity=".6"/>
</svg>
