<svg xmlns="http://www.w3.org/2000/svg" viewBox="0 0 200 160"><defs>
<linearGradient id="metal" x1="0" y1="0" x2="1" y2="0"><stop offset="0" stop-color="#e2e8f0"/><stop offset=".45" stop-color="#f8fafc"/><stop offset="1" stop-color="#94a3b8"/></linearGradient>
<linearGradient id="metalv" x1="0" y1="0" x2="0" y2="1"><stop offset="0" stop-color="#f1f5f9"/><stop offset="1" stop-color="#94a3b8"/></linearGradient>
<linearGradient id="chrome" x1="0" y1="0" x2="1" y2="0"><stop offset="0" stop-color="#cbd5e1"/><stop offset=".5" stop-color="#f8fafc"/><stop offset="1" stop-color="#64748b"/></linearGradient>
<linearGradient id="copper" x1="0" y1="0" x2="0" y2="1"><stop offset="0" stop-color="#fbbf24"/><stop offset="1" stop-color="#b45309"/></linearGradient>
<linearGradient id="brass" x1="0" y1="0" x2="0" y2="1"><stop offset="0" stop-color="#fde68a"/><stop offset="1" stop-color="#a16207"/></linearGradient>
<linearGradient id="white" x1="0" y1="0" x2="1" y2="0"><stop offset="0" stop-color="#ffffff"/><stop offset="1" stop-color="#d6d3d1"/></linearGradient>
<linearGradient id="dark" x1="0" y1="0" x2="0" y2="1"><stop offset="0" stop-color="#64748b"/><stop offset="1" stop-color="#1e293b"/></linearGradient>
<linearGradient id="blue" x1="0" y1="0" x2="0" y2="1"><stop offset="0" stop-color="#93c5fd"/><stop offset="1" stop-color="#1d4ed8"/></linearGradient>
<linearGradient id="red" x1="0" y1="0" x2="0" y2="1"><stop offset="0" stop-color="#fca5a5"/><stop offset="1" stop-color="#b91c1c"/></linearGradient>
<linearGradient id="amber" x1="0" y1="0" x2="0" y2="1"><stop offset="0" stop-color="#fcd34d"/><stop offset="1" stop-color="#b45309"/></linearGradient>
<linearGradient id="yellow" x1="0" y1="0" x2="0" y2="1"><stop offset="0" stop-color="#fde047"/><stop offset="1" stop-color="#ca8a04"/></linearGradient>
</defs><rect width="200" height="160" fill="#f8fafc"/><ellipse cx="100" cy="146" rx="52" ry="7" fill="#0f172a" opacity=".08"/>
<path d="M84 122 v-60 q0 -28 28 -28 q26 0 26 26" fill="none" stroke="url(#chrome)" stroke-width="11" stroke-linecap="round"/>
<path d="M138 60 v14" stroke="#334155" stroke-width="7" stroke-linecap="round"/>
<path d="M132 74 h13 l-3 18 h-7z" fill="url(#dark)"/>
<path d="M138 60 q16 30 4 52" fill="none" stroke="#94a3b8" stroke-width="3" stroke-dasharray="4 3"/>
<rect x="72" y="118" width="25" height="14" rx="4" fill="url(#chrome)"/>
<rect x="58" y="130" width="54" height="8" rx="4" fill="url(#metal)"/>
<rect x="96" y="24" width="22" height="7" rx="3.5" fill="url(#dark)" transform="rotate(-14 107 27)"/>
</svg>