<svg xmlns="http://www.w3.org/2000/svg" viewBox="0 0 200 160"><defs>
<linearGradient id="metal" x1="0" y1="0" x2="1" y2="0"><stop offset="0" stop-color="#e2e8f0"/><stop offset=".45" stop-color="#f8fafc"/><stop offset="1" stop-color="#94a3b8"/></linearGradient>
<linearGradient id="metalv" x1="0" y1="0" x2="0" y2="1"><stop offset="0" stop-color="#f1f5f9"/><stop offset="1" stop-color="#94a3b8"/></linearGradient>
<linearGradient id="chrome" x1="0" y1="0" x2="1" y2="0"><stop offset="0" stop-color="#cbd5e1"/><stop offset=".5" stop-color="#f8fafc"/><stop offset="1" stop-color="#64748b"/></linearGradient>
<linearGradient id="copper" x1="0" y1="0" x2="0" y2="1"><stop offset="0" stop-color="#fbbf24"/><stop offset="1" stop-color="#b45309"/></linearGradient>
<linearGradient id="brass" x1="0" y1="0" x2="0" y2="1"><stop offset="0" stop-color="#fde68a"/><stop offset="1" stop-color="#a16207"/></linearGradient>
<linearGradient id="white" x1="0" y1="0" x2="1" y2="0"><stop offset="0" stop-color="#ffffff"/><stop offset="1" stop-color="#d6d3d1"/></linearGradient>
<linearGradient id="dark" x1="0" y1="0" x2="0" y2="1"><stop offset="0" stop-color="#64748b"/><stop offset="1" stop-color="#1e293b"/></linearGradient>
<linearGradient id="blue" x1="0" y1="0" x2="0" y2="1"><stop offset="0" stop-color="#93c5fd"/><stop offset="1" stop-color="#1d4ed8"/></linearGradient>
<linearGradient id="red" x1="0" y1="0" x2="0" y2="1"><stop offset="0" stop-color="#fca5a5"/><stop offset="1" stop-color="#b91c1c"/></linearGradient>
<linearGradient id="amber" x1="0" y1="0" x2="0" y2="1"><stop offset="0" stop-color="#fcd34d"/><stop offset="1" stop-color="#b45309"/></linearGradient>
<linearGradient id="yellow" x1="0" y1="0" x2="0" y2="1"><stop offset="0" stop-color="#fde047"/><stop offset="1" stop-color="#ca8a04"/></linearGradient>
</defs><rect width="200" height="160" fill="#f8fafc"/><ellipse cx="100" cy="146" rx="52" ry="7" fill="#0f172a" opacity=".08"/>
<rect x="40" y="88" width="120" height="14" rx="2" fill="url(#dark)" stroke="#0f172a"/>
<line x1="44" y1="92" x2="156" y2="92" stroke="#94a3b8" stroke-width="2" opacity=".7"/>
<rect x="86" y="84" width="9" height="22" rx="2" fill="url(#metalv)" stroke="#334155"/>
<rect x="105" y="84" width="9" height="22" rx="2" fill="url(#metalv)" stroke="#334155"/>
<rect x="95" y="82" width="10" height="26" rx="2" fill="url(#dark)" stroke="#0f172a"/>
<rect x="48" y="85" width="9" height="20" rx="2" fill="url(#yellow)" stroke="#a16207"/>
<rect x="143" y="85" width="9" height="20" rx="2" fill="url(#yellow)" stroke="#a16207"/>
<path d="M140 44 q8 11 3 19 a9 9 0 0 1 -17 -3 q0 -7 6 -11 q1 5 5 7 q3 -5 3 -12z" fill="url(#yellow)" stroke="#ca8a04" stroke-width=".5"/>
<path d="M133 59 a4.5 4.5 0 0 0 9 1 q0 -4 -4.5 -7 q-4.5 3 -4.5 6z" fill="url(#amber)"/>
</svg>
