<svg xmlns="http://www.w3.org/2000/svg" viewBox="0 0 200 160"><defs>
<linearGradient id="metal" x1="0" y1="0" x2="1" y2="0"><stop offset="0" stop-color="#e2e8f0"/><stop offset=".45" stop-color="#f8fafc"/><stop offset="1" stop-color="#94a3b8"/></linearGradient>
<linearGradient id="metalv" x1="0" y1="0" x2="0" y2="1"><stop offset="0" stop-color="#f1f5f9"/><stop offset="1" stop-color="#94a3b8"/></linearGradient>
<linearGradient id="chrome" x1="0" y1="0" x2="1" y2="0"><stop offset="0" stop-color="#cbd5e1"/><stop offset=".5" stop-color="#f8fafc"/><stop offset="1" stop-color="#64748b"/></linearGradient>
<linearGradient id="copper" x1="0" y1="0" x2="0" y2="1"><stop offset="0" stop-color="#fbbf24"/><stop offset="1" stop-color="#b45309"/></linearGradient>
<linearGradient id="brass" x1="0" y1="0" x2="0" y2="1"><stop offset="0" stop-color="#fde68a"/><stop offset="1" stop-color="#a16207"/></linearGradient>
<linearGradient id="white" x1="0" y1="0" x2="1" y2="0"><stop offset="0" stop-color="#ffffff"/><stop offset="1" stop-color="#d6d3d1"/></linearGradient>
<linearGradient id="dark" x1="0" y1="0" x2="0" y2="1"><stop offset="0" stop-color="#64748b"/><stop offset="1" stop-color="#1e293b"/></linearGradient>
<linearGradient id="blue" x1="0" y1="0" x2="0" y2="1"><stop offset="0" stop-color="#93c5fd"/><stop offset="1" stop-color="#1d4ed8"/></linearGradient>
<linearGradient id="red" x1="0" y1="0" x2="0" y2="1"><stop offset="0" stop-color="#fca5a5"/><stop offset="1" stop-color="#b91c1c"/></linearGradient>
<linearGradient id="amber" x1="0" y1="0" x2="0" y2="1"><stop offset="0" stop-color="#fcd34d"/><stop offset="1" stop-color="#b45309"/></linearGradient>
<linearGradient id="yellow" x1="0" y1="0" x2="0" y2="1"><stop offset="0" stop-color="#fde047"/><stop offset="1" stop-color="#ca8a04"/></linearGradient>
</defs><rect width="200" height="160" fill="#f8fafc"/><ellipse cx="100" cy="146" rx="52" ry="7" fill="#0f172a" opacity=".08"/>
<rect x="86" y="26" width="28" height="46" rx="13" fill="url(#chrome)" stroke="#64748b"/>
<line x1="93" y1="32" x2="93" y2="64" stroke="#f8fafc" stroke-width="3" opacity=".8"/>
<line x1="88" y1="60" x2="112" y2="60" stroke="#64748b" opacity=".6"/>
<rect x="94" y="76" width="12" height="20" fill="url(#brass)" stroke="#a16207"/>
<rect x="90" y="68" width="20" height="10" rx="2" fill="url(#brass)" stroke="#a16207"/>
<rect x="40" y="100" width="120" height="12" rx="2" fill="url(#copper)" stroke="#92400e"/>
<rect x="88" y="94" width="24" height="24" rx="3" fill="url(#brass)" stroke="#a16207"/>
<line x1="46" y1="104" x2="86" y2="104" stroke="#fde68a" stroke-width="2" opacity=".6"/>
<line x1="114" y1="104" x2="154" y2="104" stroke="#fde68a" stroke-width="2" opacity=".6"/>
</svg>
