<svg xmlns="http://www.w3.org/2000/svg" viewBox="0 0 200 160"><defs>
<linearGradient id="metal" x1="0" y1="0" x2="1" y2="0"><stop offset="0" stop-color="#e2e8f0"/><stop offset=".45" stop-color="#f8fafc"/><stop offset="1" stop-color="#94a3b8"/></linearGradient>
<linearGradient id="metalv" x1="0" y1="0" x2="0" y2="1"><stop offset="0" stop-color="#f1f5f9"/><stop offset="1" stop-color="#94a3b8"/></linearGradient>
<linearGradient id="chrome" x1="0" y1="0" x2="1" y2="0"><stop offset="0" stop-color="#cbd5e1"/><stop offset=".5" stop-color="#f8fafc"/><stop offset="1" stop-color="#64748b"/></linearGradient>
<linearGradient id="copper" x1="0" y1="0" x2="0" y2="1"><stop offset="0" stop-color="#fbbf24"/><stop offset="1" stop-color="#b45309"/></linearGradient>
<linearGradient id="brass" x1="0" y1="0" x2="0" y2="1"><stop offset="0" stop-color="#fde68a"/><stop offset="1" stop-color="#a16207"/></linearGradient>
<linearGradient id="white" x1="0" y1="0" x2="1" y2="0"><stop offset="0" stop-color="#ffffff"/><stop offset="1" stop-color="#d6d3d1"/></linearGradient>
<linearGradient id="dark" x1="0" y1="0" x2="0" y2="1"><stop offset="0" stop-color="#64748b"/><stop offset="1" stop-color="#1e293b"/></linearGradient>
<linearGradient id="blue" x1="0" y1="0" x2="0" y2="1"><stop offset="0" stop-color="#93c5fd"/><stop offset="1" stop-color="#1d4ed8"/></linearGradient>
<linearGradient id="red" x1="0" y1="0" x2="0" y2="1"><stop offset="0" stop-color="#fca5a5"/><stop offset="1" stop-color="#b91c1c"/></linearGradient>
<linearGradient id="amber" x1="0" y1="0" x2="0" y2="1"><stop offset="0" stop-color="#fcd34d"/><stop offset="1" stop-color="#b45309"/></linearGradient>
<linearGradient id="yellow" x1="0" y1="0" x2="0" y2="1"><stop offset="0" stop-color="#fde047"/><stop offset="1" stop-color="#ca8a04"/></linearGradient>
</defs><rect width="200" height="160" fill="#f8fafc"/><ellipse cx="100" cy="146" rx="52" ry="7" fill="#0f172a" opacity=".08"/>
<rect x="95" y="42" width="10" height="22" rx="4" fill="url(#chrome)" stroke="#64748b"/>
<path d="M100 44 q0 -11 12 -11 q10 0 10 9 v8" fill="none" stroke="url(#chrome)" stroke-width="6" stroke-linecap="round"/>
<circle cx="76" cy="56" r="5" fill="url(#chrome)" stroke="#64748b"/><circle cx="124" cy="56" r="5" fill="url(#chrome)" stroke="#64748b"/>
<path d="M122 54 c-3 5 -4 7 -4 9 a4 4 0 0 0 8 0 c0 -2 -1 -4 -4 -9z" fill="url(#blue)"/>
<rect x="42" y="74" width="116" height="16" rx="4" fill="#e7e5e4" stroke="#d6d3d1"/>
<ellipse cx="100" cy="80" rx="44" ry="17" fill="#fafaf9" stroke="#d6d3d1"/>
<ellipse cx="100" cy="82" rx="35" ry="12" fill="url(#white)" stroke="#e7e5e4"/>
<circle cx="100" cy="84" r="4" fill="#94a3b8"/>
</svg>
