<svg xmlns="http://www.w3.org/2000/svg" viewBox="0 0 200 160"><defs>
<linearGradient id="metal" x1="0" y1="0" x2="1" y2="0"><stop offset="0" stop-color="#e2e8f0"/><stop offset=".45" stop-color="#f8fafc"/><stop offset="1" stop-color="#94a3b8"/></linearGradient>
<linearGradient id="metalv" x1="0" y1="0" x2="0" y2="1"><stop offset="0" stop-color="#f1f5f9"/><stop offset="1" stop-color="#94a3b8"/></linearGradient>
<linearGradient id="chrome" x1="0" y1="0" x2="1" y2="0"><stop offset="0" stop-color="#cbd5e1"/><stop offset=".5" stop-color="#f8fafc"/><stop offset="1" stop-color="#64748b"/></linearGradient>
<linearGradient id="copper" x1="0" y1="0" x2="0" y2="1"><stop offset="0" stop-color="#fbbf24"/><stop offset="1" stop-color="#b45309"/></linearGradient>
<linearGradient id="brass" x1="0" y1="0" x2="0" y2="1"><stop offset="0" stop-color="#fde68a"/><stop offset="1" stop-color="#a16207"/></linearGradient>
<linearGradient id="white" x1="0" y1="0" x2="1" y2="0"><stop offset="0" stop-color="#ffffff"/><stop offset="1" stop-color="#d6d3d1"/></linearGradient>
<linearGradient id="dark" x1="0" y1="0" x2="0" y2="1"><stop offset="0" stop-color="#64748b"/><stop offset="1" stop-color="#1e293b"/></linearGradient>
<linearGradient id="blue" x1="0" y1="0" x2="0" y2="1"><stop offset="0" stop-color="#93c5fd"/><stop offset="1" stop-color="#1d4ed8"/></linearGradient>
<linearGradient id="red" x1="0" y1="0" x2="0" y2="1"><stop offset="0" stop-color="#fca5a5"/><stop offset="1" stop-color="#b91c1c"/></linearGradient>
<linearGradient id="amber" x1="0" y1="0" x2="0" y2="1"><stop offset="0" stop-color="#fcd34d"/><stop offset="1" stop-color="#b45309"/></linearGradient>
<linearGradient id="yellow" x1="0" y1="0" x2="0" y2="1"><stop offset="0" stop-color="#fde047"/><stop offset="1" stop-color="#ca8a04"/></linearGradient>
</defs><rect width="200" height="160" fill="#f8fafc"/><ellipse cx="100" cy="146" rx="52" ry="7" fill="#0f172a" opacity=".08"/>
<rect x="44" y="22" width="42" height="112" fill="#f1f5f9" stroke="#e2e8f0"/>
<line x1="44" y1="60" x2="86" y2="60" stroke="#e2e8f0"/><line x1="44" y1="98" x2="86" y2="98" stroke="#e2e8f0"/>
<line x1="65" y1="22" x2="65" y2="134" stroke="#e2e8f0"/>
<path d="M122 76 q-1 30 -5 48 h18 q-4 -18 -5 -48z" fill="url(#blue)" opacity=".85"/>
<ellipse cx="127" cy="126" rx="16" ry="4" fill="#93c5fd" opacity=".5"/>
<rect x="88" y="52" width="42" height="15" rx="7" fill="url(#chrome)" stroke="#64748b"/>
<rect x="122" y="44" width="9" height="10" rx="3" fill="url(#chrome)" stroke="#64748b"/>
<rect x="120" y="52" width="14" height="24" rx="5" fill="url(#chrome)" stroke="#64748b"/>
<ellipse cx="88" cy="60" rx="7" ry="13" fill="url(#chrome)" stroke="#64748b"/>
<line x1="94" y1="56" x2="116" y2="56" stroke="#f8fafc" stroke-width="2" opacity=".8"/>
</svg>
