<svg xmlns="http://www.w3.org/2000/svg" viewBox="0 0 200 160"><defs>
<linearGradient id="metal" x1="0" y1="0" x2="1" y2="0"><stop offset="0" stop-color="#e2e8f0"/><stop offset=".45" stop-color="#f8fafc"/><stop offset="1" stop-color="#94a3b8"/></linearGradient>
<linearGradient id="metalv" x1="0" y1="0" x2="0" y2="1"><stop offset="0" stop-color="#f1f5f9"/><stop offset="1" stop-color="#94a3b8"/></linearGradient>
<linearGradient id="chrome" x1="0" y1="0" x2="1" y2="0"><stop offset="0" stop-color="#cbd5e1"/><stop offset=".5" stop-color="#f8fafc"/><stop offset="1" stop-color="#64748b"/></linearGradient>
<linearGradient id="copper" x1="0" y1="0" x2="0" y2="1"><stop offset="0" stop-color="#fbbf24"/><stop offset="1" stop-color="#b45309"/></linearGradient>
<linearGradient id="brass" x1="0" y1="0" x2="0" y2="1"><stop offset="0" stop-color="#fde68a"/><stop offset="1" stop-color="#a16207"/></linearGradient>
<linearGradient id="white" x1="0" y1="0" x2="1" y2="0"><stop offset="0" stop-color="#ffffff"/><stop offset="1" stop-color="#d6d3d1"/></linearGradient>
<linearGradient id="dark" x1="0" y1="0" x2="0" y2="1"><stop offset="0" stop-color="#64748b"/><stop offset="1" stop-color="#1e293b"/></linearGradient>
<linearGradient id="blue" x1="0" y1="0" x2="0" y2="1"><stop offset="0" stop-color="#93c5fd"/><stop offset="1" stop-color="#1d4ed8"/></linearGradient>
<linearGradient id="red" x1="0" y1="0" x2="0" y2="1"><stop offset="0" stop-color="#fca5a5"/><stop offset="1" stop-color="#b91c1c"/></linearGradient>
<linearGradient id="amber" x1="0" y1="0" x2="0" y2="1"><stop offset="0" stop-color="#fcd34d"/><stop offset="1" stop-color="#b45309"/></linearGradient>
<linearGradient id="yellow" x1="0" y1="0" x2="0" y2="1"><stop offset="0" stop-color="#fde047"/><stop offset="1" stop-color="#ca8a04"/></linearGradient>
</defs><rect width="200" height="160" fill="#f8fafc"/><ellipse cx="100" cy="146" rx="52" ry="7" fill="#0f172a" opacity=".08"/>
<rect x="42" y="62" width="84" height="52" rx="6" fill="url(#white)" stroke="#d6d3d1"/>
<path d="M126 114 v-44 h16 q6 0 9 5 l8 13 q2 4 2 8 v18 z" fill="url(#white)" stroke="#d6d3d1"/>
<path d="M130 76 h11 q4 0 6 4 l6 10 h-23 z" fill="url(#blue)" stroke="#d6d3d1"/>
<rect x="43" y="94" width="116" height="9" fill="url(#amber)"/>
<line x1="96" y1="66" x2="96" y2="112" stroke="#d6d3d1"/>
<rect x="87" y="86" width="7" height="3" rx="1.5" fill="#94a3b8"/>
<rect x="155" y="93" width="6" height="6" rx="2" fill="url(#yellow)" stroke="#ca8a04"/>
<rect x="151" y="106" width="10" height="6" rx="3" fill="url(#chrome)"/>
<circle cx="68" cy="114" r="11" fill="#1e293b"/><circle cx="68" cy="114" r="5" fill="url(#chrome)"/>
<circle cx="136" cy="114" r="11" fill="#1e293b"/><circle cx="136" cy="114" r="5" fill="url(#chrome)"/>
</svg>
