<svg xmlns="http://www.w3.org/2000/svg" viewBox="0 0 200 160"><defs>
<linearGradient id="metal" x1="0" y1="0" x2="1" y2="0"><stop offset="0" stop-color="#e2e8f0"/><stop offset=".45" stop-color="#f8fafc"/><stop offset="1" stop-color="#94a3b8"/></linearGradient>
<linearGradient id="metalv" x1="0" y1="0" x2="0" y2="1"><stop offset="0" stop-color="#f1f5f9"/><stop offset="1" stop-color="#94a3b8"/></linearGradient>
<linearGradient id="chrome" x1="0" y1="0" x2="1" y2="0"><stop offset="0" stop-color="#cbd5e1"/><stop offset=".5" stop-color="#f8fafc"/><stop offset="1" stop-color="#64748b"/></linearGradient>
<linearGradient id="copper" x1="0" y1="0" x2="0" y2="1"><stop offset="0" stop-color="#fbbf24"/><stop offset="1" stop-color="#b45309"/></linearGradient>
<linearGradient id="brass" x1="0" y1="0" x2="0" y2="1"><stop offset="0" stop-color="#fde68a"/><stop offset="1" stop-color="#a16207"/></linearGradient>
<linearGradient id="white" x1="0" y1="0" x2="1" y2="0"><stop offset="0" stop-color="#ffffff"/><stop offset="1" stop-color="#d6d3d1"/></linearGradient>
<linearGradient id="dark" x1="0" y1="0" x2="0" y2="1"><stop offset="0" stop-color="#64748b"/><stop offset="1" stop-color="#1e293b"/></linearGradient>
<linearGradient id="blue" x1="0" y1="0" x2="0" y2="1"><stop offset="0" stop-color="#93c5fd"/><stop offset="1" stop-color="#1d4ed8"/></linearGradient>
<linearGradient id="red" x1="0" y1="0" x2="0" y2="1"><stop offset="0" stop-color="#fca5a5"/><stop offset="1" stop-color="#b91c1c"/></linearGradient>
<linearGradient id="amber" x1="0" y1="0" x2="0" y2="1"><stop offset="0" stop-color="#fcd34d"/><stop offset="1" stop-color="#b45309"/></linearGradient>
<linearGradient id="yellow" x1="0" y1="0" x2="0" y2="1"><stop offset="0" stop-color="#fde047"/><stop offset="1" stop-color="#ca8a04"/></linearGradient>
</defs><rect width="200" height="160" fill="#f8fafc"/><ellipse cx="100" cy="146" rx="52" ry="7" fill="#0f172a" opacity=".08"/>
<path d="M78 34 Q70 16 84 14 Q94 13 96 24" fill="none" stroke="#60a5fa" stroke-width="5"/>
<path d="M122 34 Q130 16 116 14 Q106 13 104 24" fill="none" stroke="#f87171" stroke-width="5"/>
<rect x="56" y="32" width="88" height="104" rx="8" fill="url(#metal)" stroke="#94a3b8"/>
<rect x="61" y="38" width="78" height="16" rx="3" fill="url(#dark)"/>
<circle cx="126" cy="46" r="5" fill="url(#chrome)"/>
<circle cx="70" cy="46" r="2.5" fill="#93c5fd"/><circle cx="79" cy="46" r="2.5" fill="#93c5fd"/><circle cx="88" cy="46" r="2.5" fill="#fde047"/>
<rect x="64" y="60" width="20" height="8" rx="2" fill="#cbd5e1"/>
<circle cx="100" cy="96" r="29" fill="url(#chrome)" stroke="#64748b"/>
<circle cx="100" cy="96" r="21" fill="url(#blue)" stroke="#1e40af"/>
<path d="M86 88 a18 18 0 0 1 12 -8" stroke="#ffffff" stroke-width="3" fill="none" opacity=".7" stroke-linecap="round"/>
</svg>
